<?xml version="1.0" encoding="utf-8"?>
<!-- Generator: Adobe Illustrator 22.0.1, SVG Export Plug-In . SVG Version: 6.00 Build 0)  -->
<svg version="1.1" id="Capa_1" xmlns="http://www.w3.org/2000/svg" xmlns:xlink="http://www.w3.org/1999/xlink" x="0px" y="0px"
	 viewBox="0 0 512 512" style="enable-background:new 0 0 512 512;" xml:space="preserve">
<style type="text/css">
	.st0{fill:url(#SVGID_1_);}
</style>
<linearGradient id="SVGID_1_" gradientUnits="userSpaceOnUse" x1="-4.048566e-02" y1="1425.6543" x2="511.9054" y2="1425.6543" gradientTransform="matrix(1.0001 0 0 1.0001 4.090562e-02 -1169.799)">
	<stop  offset="0" style="stop-color:#00F2FE"/>
	<stop  offset="2.100000e-02" style="stop-color:#03EFFE"/>
	<stop  offset="0.293" style="stop-color:#24D2FE"/>
	<stop  offset="0.554" style="stop-color:#3CBDFE"/>
	<stop  offset="0.796" style="stop-color:#4AB0FE"/>
	<stop  offset="1" style="stop-color:#4FACFE"/>
</linearGradient>
<path class="st0" d="M27,274.1c3.3-77.3,45.5-147,112.8-186.4c9.5-5.6,21.8-2.4,27.4,7.2c5.6,9.5,2.4,21.8-7.2,27.4
	c-55.6,32.5-90.4,89.9-93.1,153.6c-0.5,10.7-9.3,19.2-20,19.2c-0.3,0-0.6,0-0.9,0C35.1,294.4,26.6,285.1,27,274.1z M342.6,450.3
	c-26.8,14.2-57.2,21.7-87.7,21.7c-31.8,0-63.7-8.4-92.1-24.4c-9.6-5.4-21.8-2-27.2,7.6s-2,21.8,7.6,27.2
	c34.4,19.3,73,29.6,111.7,29.6c37.1,0,73.9-9.1,106.4-26.3c9.8-5.2,13.5-17.3,8.3-27C364.5,448.8,352.4,445.1,342.6,450.3z
	 M358.1,127.6c51.6,34,83.3,90.7,84.7,151.8c0.3,10.9,9.2,19.5,20,19.5c0.2,0,0.3,0,0.5,0c11-0.3,19.8-9.4,19.5-20.5
	c-0.9-37.3-11.1-74.1-29.4-106.3c-17.7-31.1-43.1-58-73.3-78c-9.2-6.1-21.6-3.5-27.7,5.7C346.3,109.1,348.9,121.5,358.1,127.6z
	 M507.1,424.8c-7,12.6-20.2,20.4-34.6,20.4c-0.2,0-0.4,0-0.7,0c-27-0.4-78.5-11.7-170.5-62.8c-7.5-4.2-11.6-12.1-10.1-20.5
	c0.2-1.6,1.1-12.9-5.6-26.1C182.9,396.1,90.7,434.1,52.4,447.1c-4.1,1.4-8.4,2.1-12.6,2.1c-13.8,0-27-7.2-34.2-19.5
	c-7.4-12.6-7.3-28.2,0.3-40.7C20,365.8,56,326.9,146.3,273.7c7.4-4.4,16.4-3.9,22.9,1.8c1.3,1,10.7,7.8,25.8,8.6
	c-0.1-143.6,19.2-241.7,21.5-252.5c3.8-18.3,20.1-31.6,38.7-31.6c14.7,0,28,8,34.9,20.8c19.3,36,28.8,93.1,28.9,174.4
	c0,8.6-5,16.1-13.1,18.8c-1.4,0.6-12.2,5.3-20.7,17.8c103.4,57.7,182.5,117.4,213.1,143.8C512.4,387.8,516.1,408.5,507.1,424.8z
	 M235.2,283.9c0,11,9,20,20,20s20-9,20-20s-9-20-20-20C244.2,263.9,235.2,272.9,235.2,283.9z M236,227.1c2.4-0.8,4.9-1.5,7.5-2
	c9.4-21.8,24.5-34.7,35.4-41.7C278,116.9,270.1,69,255.4,40.8C252.9,53.3,239.7,122.8,236,227.1z M215.8,329.1
	c-2-1.8-3.9-3.7-5.7-5.7c-23.5,3-42.2-3.4-53.7-9.2C75.8,363,48.8,395.9,40.6,408.9C69.8,398.9,137.1,371.4,215.8,329.1z
	 M471.3,405.2c-23.4-20-81-64-157.2-110.2c-0.5,2.7-1.2,5.4-2.1,8c14.1,18.5,18.2,37.5,19,50.2C414.4,398.1,456,404.6,471.3,405.2z"
	/>
</svg>
