<?xml version="1.0" encoding="utf-8"?>
<!-- Generator: Adobe Illustrator 22.0.1, SVG Export Plug-In . SVG Version: 6.00 Build 0)  -->
<svg version="1.1" id="Capa_1" xmlns="http://www.w3.org/2000/svg" xmlns:xlink="http://www.w3.org/1999/xlink" x="0px" y="0px"
	 viewBox="0 0 359.6 316.3" style="enable-background:new 0 0 359.6 316.3;" xml:space="preserve">
<style type="text/css">
	.st0{fill:#7FAFE3;}
	.st1{fill:#73A3D6;}
	.st2{fill:#E0F7FF;}
</style>
<g>
	<path class="st0" d="M14.6,313.3l96.9-47c8.3-4,16.1-10.7,20.3-17.4l0,0c2.3-3.7,5.9-7.5,10.1-10.9l13.5-10.8l23.1-20.5l-22.8,4.4
		c-26.2,5.1-56.3,18-85.5,36.6L11.8,285C4.7,289.6-0.4,296.3,0,300.6l1.1,11.3C1.5,316.3,7.3,316.9,14.6,313.3z"/>
	<path class="st1" d="M128.5,218.7c1.5,6.4,4.3,12.6,8.5,18.3c0.8,1.1,1.6,2.1,2.5,3.1c0.8-0.7,1.6-1.4,2.5-2.1l13.5-10.8l23.1-20.5
		l-22.8,4.4C147.1,212.8,137.9,215.4,128.5,218.7z"/>
</g>
<g>
	<path class="st0" d="M168.2,11.4l-7.7,107.5c-0.7,9.2,1.2,19.3,4.9,26.3l0,0c2,3.9,3.6,8.8,4.4,14.2l2.6,17.1l6.2,30.3l7.6-22
		c8.7-25.3,12.6-57.8,11.1-92.3l-3.1-69.3c-0.4-8.5-3.6-16.2-7.6-18l-10.4-4.7C172.2-1.4,168.8,3.3,168.2,11.4z"/>
	<path class="st1" d="M193.2,157.3c-6.3-1.9-13.1-2.6-20.1-1.8c-1.3,0.1-2.6,0.3-3.9,0.6c0.2,1.1,0.4,2.1,0.6,3.2l2.6,17.1l6.2,30.3
		l7.6-22C189.1,176.3,191.4,167.1,193.2,157.3z"/>
</g>
<g>
	<path class="st0" d="M352.9,295.4l-89.2-60.4c-7.6-5.2-17.4-8.6-25.2-8.9l0,0c-4.4-0.2-9.4-1.3-14.5-3.3l-16.1-6.3l-29.3-9.8
		l15.3,17.5c17.5,20.2,43.7,39.8,74.4,55.7l61.6,32c7.5,3.9,15.8,4.9,19.4,2.4l9.3-6.6C362,305.2,359.6,299.9,352.9,295.4z"/>
	<path class="st1" d="M214.1,244c4.8-4.5,8.8-10.1,11.6-16.5c0.5-1.2,1-2.4,1.4-3.7c-1-0.3-2.1-0.7-3.1-1.1l-16.1-6.3l-29.3-9.8
		l15.3,17.5C199.7,230.9,206.5,237.6,214.1,244z"/>
</g>
<circle class="st2" cx="178.6" cy="206.7" r="25.8"/>
</svg>
