<?xml version="1.0" encoding="utf-8"?>
<!-- Generator: Adobe Illustrator 22.0.1, SVG Export Plug-In . SVG Version: 6.00 Build 0)  -->
<svg version="1.1" id="Capa_1" xmlns="http://www.w3.org/2000/svg" xmlns:xlink="http://www.w3.org/1999/xlink" x="0px" y="0px"
	 viewBox="0 0 512 512" style="enable-background:new 0 0 512 512;" xml:space="preserve">
<style type="text/css">
	.st0{fill:#C0E5FF;}
	.st1{fill:#B5E0FF;}
	.st2{fill:#E0F7FF;}
	.st3{fill:#BDECFF;}
	.st4{fill:#7FAFE3;}
	.st5{fill:#73A3D6;}
</style>
<polygon class="st0" points="214.7,161.1 197.3,161.1 182.1,467.9 229.9,467.9 "/>
<path class="st1" d="M214.4,467.9c-18.9-51.4-15.9-179.1-13.1-238.9c0.1-3,1.4-5.2,2.8-4.8c0.6,0.2,1.3,0.3,2,0.3
	c4.4,0,8.4-3.8,11.3-9.9l-2.6-53.5h-17.4l-15.2,306.8L214.4,467.9L214.4,467.9L214.4,467.9z"/>
<path class="st2" d="M226.1,392.5c-17,5-29.8-4.6-39.9-7.8l-4.1,83.2h47.7L226.1,392.5z"/>
<path class="st3" d="M186.2,384.6l-4.1,83.2h32.3c-6.7-18.2-10.6-46-12.8-77C195.8,388.8,190.8,386.1,186.2,384.6z"/>
<path class="st4" d="M238.8,512h-65.7c-2.6,0-4.7-4.5-4.7-10.2V478c0-5.6,2.1-10.2,4.7-10.2h65.7c2.6,0,4.7,4.5,4.7,10.2v23.8
	C243.6,507.5,241.5,512,238.8,512z"/>
<path class="st5" d="M173.2,467.9c-2.6,0-4.7,4.5-4.7,10.2v23.8c0,5.6,2.1,10.2,4.7,10.2h40.4c-9.6-11.4-10.6-33.9-9.1-44.1
	L173.2,467.9L173.2,467.9z"/>
<g>
	<path class="st4" d="M12.2,134.5l104.1,27.8c8.9,2.4,19.2,2.4,26.8,0.1l0,0c4.2-1.3,9.4-1.9,14.8-1.7l17.3,0.7l30.9-0.4l-20.2-11.6
		c-23.2-13.3-54.4-23.2-88.6-28.2l-68.7-10c-8.4-1.2-16.6,0.5-19.1,4.1l-6.6,9.3C0.4,128.2,4.4,132.4,12.2,134.5z"/>
	<path class="st5" d="M160.3,137.4c-3,5.9-5,12.4-5.5,19.4c-0.1,1.3-0.2,2.6-0.2,4c1.1,0,2.2,0,3.3,0l17.3,0.7l30.9-0.4l-20.2-11.6
		C178.1,145.1,169.5,141.1,160.3,137.4z"/>
</g>
<g>
	<path class="st4" d="M325.9,6.6l-76.1,76.2c-6.5,6.5-11.7,15.4-13.5,23.1l0,0c-1,4.3-3.1,9-5.9,13.6l-9.2,14.6L206,161.1l20.1-11.7
		c23.1-13.4,47.3-35.5,68.7-62.6l43-54.5c5.3-6.7,7.8-14.6,6-18.6l-4.8-10.3C337.3-0.5,331.6,0.8,325.9,6.6z"/>
	<path class="st5" d="M249.3,133.3c-3.6-5.6-8.3-10.5-14-14.5c-1.1-0.8-2.2-1.5-3.3-2.1c-0.5,0.9-1.1,1.9-1.7,2.8l-9.2,14.6
		L206,161.1l20.1-11.7C233.8,145,241.6,139.5,249.3,133.3z"/>
</g>
<g>
	<path class="st4" d="M279.9,342.2l-28-104.1c-2.4-8.9-7.5-17.9-13.3-23.2l0,0c-3.2-3-6.3-7.2-8.8-11.9l-8.1-15.3L206,161.1
		l0.1,23.2c0.1,26.7,7.1,58.7,19.8,90.8l25.7,64.5c3.1,7.9,8.7,14.1,13.1,14.5l11.3,1.1C280.3,355.6,282,350,279.9,342.2z"/>
	<path class="st5" d="M208.4,212.5c6.6-0.3,13.2-1.9,19.6-4.9c1.2-0.6,2.4-1.2,3.5-1.8c-0.6-0.9-1.1-1.9-1.6-2.8l-8.1-15.3
		L206,161.1l0.1,23.2C206.1,193.2,206.9,202.7,208.4,212.5z"/>
</g>
<circle class="st2" cx="206" cy="161.1" r="25.8"/>
</svg>
