<?xml version="1.0" encoding="utf-8"?>
<!-- Generator: Adobe Illustrator 22.0.1, SVG Export Plug-In . SVG Version: 6.00 Build 0)  -->
<svg version="1.1" id="Capa_1" xmlns="http://www.w3.org/2000/svg" xmlns:xlink="http://www.w3.org/1999/xlink" x="0px" y="0px"
	 viewBox="0 0 512 512" style="enable-background:new 0 0 512 512;" xml:space="preserve">
<style type="text/css">
	.st0{fill:#C0E5FF;}
	.st1{fill:#B5E0FF;}
	.st2{fill:#E0F7FF;}
	.st3{fill:#BDECFF;}
	.st4{fill:#7FAFE3;}
	.st5{fill:#73A3D6;}
</style>
<polygon class="st0" points="243.4,161.1 206.2,161.1 173.6,467.9 275.9,467.9 "/>
<path class="st1" d="M242.7,467.9c-40.5-51.4-34-179.1-28.2-238.9c0.3-3,3-5.2,6-4.8c1.4,0.2,2.8,0.3,4.2,0.3c9.4,0,18-3.8,24.3-9.9
	l-5.7-53.5h-37.2l-32.5,306.8L242.7,467.9L242.7,467.9L242.7,467.9z"/>
<path class="st2" d="M267.9,392.5c-36.4,5-63.8-4.6-85.5-7.8l-8.8,83.2h102.3L267.9,392.5z"/>
<path class="st3" d="M182.4,384.6l-8.8,83.2h69.1c-14.4-18.2-22.8-46-27.5-77C203,388.8,192.1,386.1,182.4,384.6z"/>
<g>
	<path class="st4" d="M342.7,3.6L253,74.3c-7.7,6-11.3,15.8-9.4,25.4l0,0c1.1,5.3,0.4,10.8-1.8,15.8l-7.2,15.8l-9.8,29.8l29.4-7.3
		c33.8-8.4,63.8-27.9,85.2-55.4l43-55.2c5.2-6.7,4.7-16.3-1.4-22.4L365.1,5C359-1.1,349.4-1.7,342.7,3.6z"/>
	<path class="st4" d="M29.4,137.7l106,42.4c9,3.6,19.4,1.8,26.7-4.6l0,0c4.1-3.6,9.2-5.8,14.6-6.3l17.3-1.7l30.8-6.4l-21-21.8
		c-24.2-25.1-56.1-41.3-90.6-46.1l-69.3-9.6c-8.5-1.2-16.5,4.1-18.7,12.4l-5.8,21.6C17.2,125.9,21.5,134.5,29.4,137.7z"/>
	<path class="st4" d="M302.2,341.9l-16.3-113c-1.4-9.6-8.1-17.7-17.3-20.8l0,0c-5.1-1.7-9.6-5-12.7-9.5l-10.1-14.1l-20.9-23.4
		l-8.4,29.1c-9.6,33.5-7.7,69.2,5.4,101.5l26.3,64.8c3.2,7.9,11.8,12.2,20.1,10l21.6-5.8C298.1,358.5,303.4,350.4,302.2,341.9z"/>
</g>
<g>
	<path class="st5" d="M212,211c4.1,1.1,8.4,1.6,12.8,1.6c12.4,0,23.8-4.4,32.7-11.8c-0.6-0.7-1.2-1.4-1.7-2.1l-10.1-14.1l-20.9-23.4
		l-8.4,29.1C214.4,197.1,213,204,212,211z"/>
	<path class="st5" d="M242.8,112.9c-0.3,0.9-0.6,1.7-1,2.6l-7.2,15.8l-9.8,29.8l29.4-7.3c6.9-1.7,13.6-3.9,20.2-6.5
		C269.9,131.4,258,118.6,242.8,112.9z"/>
	<path class="st5" d="M224.8,161.1l-21-21.8c-4.9-5.1-10.2-9.8-15.7-14.2c-9.1,9.3-14.7,22-14.7,36c0,2.9,0.3,5.7,0.7,8.5
		c0.9-0.2,1.8-0.3,2.7-0.4l17.3-1.7L224.8,161.1z"/>
</g>
<circle class="st2" cx="224.8" cy="161.1" r="34.9"/>
<path class="st4" d="M295.1,512H154.4c-5.6,0-10.2-4.5-10.2-10.2V478c0-5.6,4.5-10.2,10.2-10.2h140.8c5.6,0,10.2,4.5,10.2,10.2v23.8
	C305.3,507.5,300.7,512,295.1,512z"/>
<path class="st5" d="M154.4,467.9c-5.6,0-10.2,4.5-10.2,10.2v23.8c0,5.6,4.5,10.2,10.2,10.2H241c-20.5-11.4-22.7-33.9-19.6-44.1
	L154.4,467.9L154.4,467.9z"/>
</svg>
